<svg width="175" height="32" viewBox="0 0 175 32" fill="none" xmlns="http://www.w3.org/2000/svg">
<path fill-rule="evenodd" clip-rule="evenodd" d="M148.93 18.8296L145 18.9071L145.057 19.9855C145.455 23.8471 149.379 26 152.91 26C156.787 26 161 23.5506 161 19.2269C161 18.7458 160.939 18.2532 160.847 17.7878C160.001 14.2573 156.467 13.397 153.358 13.0099C151.935 12.8755 149.246 12.7914 149.104 10.8521C149.064 10.2977 149.159 9.71146 149.504 9.26321C150.254 8.2916 151.688 7.90268 152.86 7.88072C154.358 7.85279 156.215 8.48119 156.579 10.1377L156.665 10.527L160.512 10.372L160.439 9.84938C159.906 6.01473 156.64 4 152.998 4C150.575 4 147.927 4.95022 146.412 6.93498C145.481 8.15615 145.073 9.66226 145.203 11.1931L145.241 11.6494L145.248 11.6491L145.298 11.9259C145.982 15.7867 149.558 16.5949 152.892 16.9332C154.031 17.0487 156.676 17.1986 156.99 18.5982C157.034 18.7933 157.066 18.9968 157.066 19.1972C157.066 21.2008 154.59 22.0896 152.939 22.0896C151.456 22.0896 149.172 21.3356 148.986 19.5893L148.93 18.8296Z" fill="#0067B8"/>
<path fill-rule="evenodd" clip-rule="evenodd" d="M134.748 5H131V26H144V22.1777H134.748V5Z" fill="#0067B8"/>
<path fill-rule="evenodd" clip-rule="evenodd" d="M110 5L117.66 15.3464L110.005 26H114.747L120.003 18.473L125.288 26H130L123.791 17.359L118.796 10.4477L120.005 12.0745L114.75 5H110Z" fill="#0067B8"/>
<path fill-rule="evenodd" clip-rule="evenodd" d="M97.6985 19.9828H93.8616L93.7309 20.2313C92.8929 21.8283 91.2678 22.5703 89.5137 22.5703C87.4116 22.5703 85.298 21.0904 84.8372 18.9919L84.7533 18.6109H97.8235L97.9022 18.2438C98.0044 17.7657 98.0272 17.2454 97.9674 16.7436C97.6567 12.1044 94.1482 9 89.5422 9C84.5506 9 81 12.4728 81 17.4855C81 22.4267 84.537 26 89.4849 26C93.0487 26 96.2901 24.0342 97.4842 20.5994L97.6985 19.9828ZM85.1754 14.9096C85.9706 13.1683 87.6955 12.4007 89.5422 12.4007C91.384 12.4007 93.0372 13.1625 93.7879 14.9163L93.9754 15.3537H84.9727L85.1754 14.9096Z" fill="black"/>
<path fill-rule="evenodd" clip-rule="evenodd" d="M69.6312 5H69.2951H66V26H69.6312V20.9879L71.0962 19.3723L75.9805 26H79.8029V25.12L73.4783 16.7327L80 9.55964H75.4792L71.1601 14.3002L69.6312 16.1773V5Z" fill="black"/>
<path fill-rule="evenodd" clip-rule="evenodd" d="M57.7338 9.33808H54V26H57.7338V16.9995C57.7338 13.9714 60.4852 11.7727 63.4008 12.6461L64 12.8256V9.31846L63.6395 9.23385C61.7803 8.79819 59.8174 8.91408 58.2337 10.0715L57.7338 10.4371V9.33808Z" fill="black"/>
<path fill-rule="evenodd" clip-rule="evenodd" d="M48.1823 25.7411H52V9.25878H48.1757L48.1944 10.56L47.687 10.2239C46.3079 9.31005 44.5809 9 42.9412 9C37.9222 9 34 12.4005 34 17.4282C34 22.5767 37.8243 26.02 43.0018 25.9999C44.5775 25.9938 46.3581 25.605 47.686 24.7422L48.1823 24.4195V25.7411ZM48.1823 17.4855C48.1823 20.361 46.0313 22.503 43.1059 22.5706C40.0143 22.6419 37.8177 20.4375 37.8177 17.4282C37.8177 14.4576 39.8683 12.4436 42.8896 12.4012C45.8909 12.3591 48.1823 14.5292 48.1823 17.4855Z" fill="black"/>
<path fill-rule="evenodd" clip-rule="evenodd" d="M132.084 2.88752H141.536H156.253H161.666C163.003 2.88752 164.098 3.98029 164.098 5.30748V26.6924C164.098 28.0197 162.999 29.1125 161.666 29.1125H156.253H141.536H109V32H141.536H156.253H161.666C164.6 32 167 29.6117 167 26.6924V5.30748C167 2.38827 164.596 1.90735e-06 161.666 1.90735e-06H156.253H141.536H134.245H130.088H129.512L121.607 10.4751L123.958 13.7422L132.084 2.88752Z" fill="#0067B8"/>
<path fill-rule="evenodd" clip-rule="evenodd" d="M6.55594 2.88752H7.81909H122.813L125 1.90735e-06H7.81909H6.55594H5.29286C2.38549 1.90735e-06 0 2.39208 0 5.30748V26.6924C0 29.6079 2.38169 32 5.29286 32H6.55594H7.81909H104.374L104.368 31.9982L104.374 32H105.2V27.2459V18.3779V13.1901H108.627V10.0056H105.2V5.41459H101.448V10.0056H97.7556V13.1901H101.448V27.217L101.451 27.4482V29.1125H7.81909H6.55594H5.29286C3.96929 29.1125 2.87956 28.0236 2.87956 26.6924V5.30748C2.87956 3.97644 3.96549 2.88752 5.29286 2.88752H6.55594Z" fill="black"/>
<path fill-rule="evenodd" clip-rule="evenodd" d="M21.4402 16.0814C21.4402 14.2856 22.9517 12.8027 24.782 12.8027C26.6124 12.8027 28.124 14.2855 28.124 16.0814V26H32V16.0814C32 12.1866 28.752 9 24.782 9C22.7019 9 20.8203 9.87524 19.5 11.2685C18.1797 9.87524 16.298 9 14.2178 9C10.248 9 7 12.1866 7 16.0814V26H10.876V16.0814C10.876 14.2856 12.3875 12.8027 14.2178 12.8027C16.0482 12.8027 17.5598 14.2855 17.5598 16.0814V26H17.5642H21.4358H21.4402V16.0814Z" fill="black"/>
<path fill-rule="evenodd" clip-rule="evenodd" d="M175 3.49997C175 5.4329 173.433 7 171.5 7C169.567 7 168 5.43299 168 3.49997C168 1.56701 169.567 0 171.5 0C173.433 0 175 1.56701 175 3.49997ZM168.564 3.49997C168.564 5.12141 169.879 6.43594 171.5 6.43594C173.122 6.43594 174.436 5.1215 174.436 3.49997C174.436 1.8785 173.121 0.564057 171.5 0.564057C169.879 0.564057 168.564 1.8785 168.564 3.49997Z" fill="black"/>
<path fill-rule="evenodd" clip-rule="evenodd" d="M171.485 3.90352H170.687V3.54003H170.676V2.54167H171.485C171.855 2.54167 172.158 2.84809 172.158 3.22255C172.158 3.59711 171.855 3.90352 171.485 3.90352ZM172.117 4.30486L173 6H172.255L171.427 4.41086H170.687V5.97551H170V4.41086V3.54003V2H171.63C172.285 2 172.821 2.54238 172.821 3.20535C172.821 3.69314 172.531 4.11562 172.117 4.30486Z" fill="black"/>
</svg>
